<svg width="390" height="40" viewBox="0 0 390 40" fill="none" xmlns="http://www.w3.org/2000/svg">
<path d="M15.4853 3.51472C17.7357 1.26428 20.788 0 23.9706 0H160.838C164.134 0 167.284 1.35497 169.55 3.74706L176.562 11.1489C180.789 15.6106 180.962 22.5449 176.962 27.2113L169.592 35.8095C167.312 38.4692 163.984 40 160.481 40H24.3255C20.9346 40 17.702 38.5654 15.4271 36.051L7.65848 27.4646C3.36833 22.7229 3.55003 15.45 8.07162 10.9284L15.4853 3.51472Z" fill="#46C190"/>
<path d="M221.485 3.51472C223.736 1.26428 226.788 0 229.971 0H366.838C370.134 0 373.284 1.35497 375.55 3.74706L382.562 11.1489C386.789 15.6106 386.962 22.5449 382.962 27.2113L375.592 35.8095C373.312 38.4692 369.984 40 366.481 40H230.325C226.935 40 223.702 38.5654 221.427 36.051L213.658 27.4646C209.368 22.7229 209.55 15.45 214.072 10.9284L221.485 3.51472Z" fill="white"/>
<path d="M86.4073 18C86.2823 17.6172 86.1182 17.2735 85.9151 16.9688C85.7119 16.6641 85.471 16.4037 85.1924 16.1875C84.9164 15.9714 84.6013 15.8073 84.2471 15.6953C83.8955 15.5807 83.5101 15.5234 83.0909 15.5234C82.4007 15.5234 81.7731 15.7018 81.208 16.0586C80.6429 16.4128 80.1937 16.9375 79.8604 17.6328C79.527 18.3256 79.3604 19.1758 79.3604 20.1836C79.3604 21.1888 79.5283 22.0391 79.8643 22.7344C80.2028 23.4271 80.6598 23.9518 81.2354 24.3086C81.8135 24.6628 82.4619 24.8398 83.1807 24.8398C83.8473 24.8398 84.4346 24.6979 84.9424 24.4141C85.4528 24.1277 85.8512 23.7227 86.1377 23.1992C86.4241 22.6732 86.5674 22.0534 86.5674 21.3398L86.9971 21.4336H83.4971V20.1836H87.9307V21.4336C87.9307 22.392 87.7262 23.2253 87.3174 23.9336C86.9111 24.642 86.3512 25.1901 85.6377 25.5781C84.9241 25.9662 84.1051 26.1602 83.1807 26.1602C82.1494 26.1602 81.2445 25.918 80.4658 25.4336C79.6872 24.9466 79.0804 24.2565 78.6455 23.3633C78.2132 22.4701 77.9971 21.4102 77.9971 20.1836C77.9971 19.2618 78.1208 18.4323 78.3682 17.6953C78.6182 16.9583 78.9697 16.3307 79.4229 15.8125C79.8786 15.2943 80.4163 14.8972 81.0361 14.6211C81.6585 14.3425 82.3434 14.2031 83.0909 14.2031C83.7028 14.2031 84.2744 14.2956 84.8057 14.4805C85.3395 14.6628 85.8148 14.9219 86.2315 15.2578C86.6507 15.5938 87.001 15.9935 87.2823 16.457C87.5635 16.9206 87.7562 17.4349 87.8604 18H86.4073Z" fill="white"/>
<path d="M92.7276 26.2031C92.1729 26.2031 91.6703 26.0989 91.2198 25.8906C90.7692 25.6796 90.4112 25.375 90.1456 24.9766C89.8799 24.5755 89.7471 24.0911 89.7471 23.5234C89.7471 23.0234 89.846 22.6171 90.044 22.3047C90.2419 21.9921 90.5049 21.7473 90.8331 21.5703C91.1638 21.3906 91.5284 21.2565 91.9268 21.168C92.3278 21.0794 92.7302 21.0078 93.1338 20.9531C93.665 20.8854 94.096 20.8346 94.4268 20.8008C94.7601 20.7643 95.0023 20.7031 95.1534 20.6172C95.307 20.5286 95.3838 20.3763 95.3838 20.1602V20.1133C95.3838 19.5533 95.2314 19.1184 94.9268 18.8086C94.6221 18.496 94.1612 18.3398 93.544 18.3398C92.9034 18.3398 92.4008 18.4804 92.0362 18.7617C91.6742 19.0429 91.419 19.3424 91.2706 19.6602L89.9971 19.2031C90.2263 18.6745 90.531 18.2617 90.9112 17.9648C91.2914 17.6653 91.708 17.457 92.1612 17.3398C92.6143 17.22 93.0596 17.1602 93.4971 17.1602C93.7783 17.1602 94.1013 17.194 94.4659 17.2617C94.8331 17.3268 95.1872 17.4622 95.5284 17.668C95.8721 17.8711 96.1572 18.1797 96.3838 18.5938C96.613 19.0052 96.7276 19.5572 96.7276 20.25V26H95.3838V24.8164H95.3174C95.2262 25.0065 95.0739 25.2096 94.8604 25.4258C94.6494 25.6419 94.3682 25.8255 94.0167 25.9766C93.6651 26.1276 93.2354 26.2031 92.7276 26.2031ZM92.9307 25C93.4619 25 93.9099 24.8958 94.2745 24.6875C94.639 24.4791 94.915 24.2109 95.1026 23.8828C95.29 23.552 95.3838 23.2044 95.3838 22.8398V21.6133C95.3291 21.6809 95.2054 21.7421 95.0127 21.7969C94.8226 21.8515 94.6026 21.8997 94.3526 21.9414C94.1052 21.9804 93.8643 22.0143 93.6299 22.043C93.3981 22.0716 93.2106 22.095 93.0674 22.1133C92.7184 22.1601 92.3929 22.2343 92.0909 22.3359C91.7914 22.4349 91.5492 22.5833 91.3643 22.7812C91.182 22.9791 91.0909 23.2486 91.0909 23.5898C91.0909 24.056 91.264 24.4075 91.6104 24.6445C91.9567 24.8815 92.3968 25 92.9307 25Z" fill="white"/>
<path d="M99.1797 26V17.2734H100.477V18.6367H100.59C100.772 18.1705 101.065 17.8086 101.469 17.5508C101.875 17.2904 102.362 17.1602 102.93 17.1602C103.505 17.1602 103.986 17.2904 104.371 17.5508C104.756 17.8086 105.056 18.1705 105.27 18.6367H105.363C105.587 18.1861 105.922 17.8281 106.367 17.5625C106.815 17.2943 107.352 17.1602 107.977 17.1602C108.755 17.1602 109.393 17.4036 109.891 17.8906C110.388 18.3776 110.637 19.1341 110.637 20.1602V26H109.293V20.1602C109.293 19.5143 109.117 19.0533 108.766 18.7773C108.414 18.5013 107.999 18.3633 107.52 18.3633C106.908 18.3633 106.432 18.5482 106.094 18.918C105.758 19.2878 105.59 19.7539 105.59 20.3164V26H104.227V20.0234C104.227 19.526 104.065 19.1249 103.742 18.8203C103.422 18.5156 103.008 18.3633 102.5 18.3633C102.151 18.3633 101.826 18.457 101.523 18.6445C101.224 18.8294 100.982 19.0859 100.797 19.4141C100.612 19.7395 100.52 20.1171 100.52 20.5469V26H99.1797Z" fill="white"/>
<path d="M116.749 26.1836C115.908 26.1836 115.183 25.9974 114.573 25.625C113.966 25.25 113.499 24.7265 113.171 24.0547C112.843 23.3828 112.679 22.5989 112.679 21.7031C112.679 20.8099 112.843 20.0221 113.171 19.3398C113.499 18.6549 113.957 18.1211 114.546 17.7383C115.134 17.3529 115.823 17.1602 116.612 17.1602C117.068 17.1602 117.517 17.2357 117.96 17.3867C118.403 17.5377 118.805 17.7825 119.167 18.1211C119.532 18.4596 119.822 18.9075 120.038 19.4648C120.254 20.0221 120.362 20.7083 120.362 21.5234V22.0898H113.636V20.9336H118.999C118.999 20.4388 118.901 19.9987 118.706 19.6133C118.511 19.2279 118.233 18.9232 117.874 18.6992C117.517 18.4752 117.097 18.3633 116.612 18.3633C116.078 18.3633 115.618 18.4948 115.23 18.7578C114.841 19.0208 114.543 19.3632 114.335 19.7852C114.127 20.2044 114.022 20.6549 114.022 21.1367V21.9102C114.022 22.569 114.137 23.1262 114.366 23.582C114.595 24.0377 114.914 24.3841 115.323 24.6211C115.732 24.8581 116.207 24.9766 116.749 24.9766C117.101 24.9766 117.42 24.9271 117.706 24.8281C117.992 24.7265 118.24 24.5742 118.448 24.3711C118.657 24.1679 118.817 23.9153 118.929 23.6133L120.226 23.9766C120.09 24.4166 119.861 24.802 119.538 25.1328C119.215 25.4635 118.817 25.7213 118.343 25.9062C117.871 26.0911 117.34 26.1836 116.749 26.1836Z" fill="white"/>
<mask id="mask0_1_803" style="mask-type:luminance" maskUnits="userSpaceOnUse" x="53" y="13" width="16" height="14">
<path d="M53 13.6001H69V26.4001H53V13.6001Z" fill="white"/>
</mask>
<g mask="url(#mask0_1_803)">
<mask id="mask1_1_803" style="mask-type:luminance" maskUnits="userSpaceOnUse" x="53" y="13" width="16" height="14">
<path d="M53 13.6001H69V26.4001H53V13.6001Z" fill="white"/>
</mask>
<g mask="url(#mask1_1_803)">
<path d="M65.0018 16.8H57C55.5703 16.7999 54.4597 17.2761 53.6683 18.2286C52.8768 19.1811 52.7579 20.1847 53.3115 21.2392C53.8652 22.2937 54.8441 22.9284 56.2484 23.1431C57.6527 23.3579 58.8552 23.0569 59.856 22.24H62.144C63.1447 23.0568 64.3471 23.3578 65.7512 23.1432C67.1553 22.9286 68.1343 22.2941 68.6882 21.2398C69.242 20.1855 69.1235 19.1821 68.3325 18.2295C67.5415 17.2769 66.4313 16.8004 65.0018 16.8ZM59.2 20.24C59.2 20.3063 59.1707 20.3629 59.1122 20.4098C59.0536 20.4566 58.9829 20.48 58.9 20.48H57.6V21.52C57.6 21.5863 57.5707 21.6429 57.5122 21.6898C57.4536 21.7366 57.3829 21.76 57.3 21.76H56.7C56.6172 21.76 56.5465 21.7366 56.4879 21.6898C56.4293 21.6429 56.4 21.5863 56.4 21.52V20.48H55.1C55.0172 20.48 54.9465 20.4566 54.8879 20.4098C54.8293 20.3629 54.8 20.3063 54.8 20.24V19.76C54.8 19.6938 54.8293 19.6372 54.8879 19.5903C54.9465 19.5435 55.0172 19.52 55.1 19.52H56.4V18.48C56.4 18.4138 56.4293 18.3572 56.4879 18.3103C56.5465 18.2635 56.6172 18.24 56.7 18.24H57.3C57.3829 18.24 57.4536 18.2635 57.5122 18.3103C57.5707 18.3572 57.6 18.4138 57.6 18.48V19.52H58.9C58.9829 19.52 59.0536 19.5435 59.1122 19.5903C59.1707 19.6372 59.2 19.6938 59.2 19.76V20.24ZM64.6 21.76C64.3239 21.76 64.0882 21.6819 63.8929 21.5257C63.6976 21.3695 63.6 21.181 63.6 20.96C63.6 20.7391 63.6976 20.5506 63.8929 20.3944C64.0882 20.2381 64.3239 20.16 64.6 20.16C64.8761 20.16 65.1119 20.2381 65.3071 20.3944C65.5024 20.5506 65.6 20.7391 65.6 20.96C65.6 21.181 65.5024 21.3695 65.3071 21.5257C65.1119 21.6819 64.8761 21.76 64.6 21.76ZM66.2 19.84C65.9239 19.84 65.6882 19.7619 65.4929 19.6057C65.2976 19.4495 65.2 19.261 65.2 19.04C65.2 18.8191 65.2976 18.6306 65.4929 18.4744C65.6882 18.3181 65.9239 18.24 66.2 18.24C66.4761 18.24 66.7118 18.3181 66.9071 18.4744C67.1024 18.6306 67.2 18.8191 67.2 19.04C67.2 19.261 67.1024 19.4495 66.9071 19.6057C66.7118 19.7619 66.4761 19.84 66.2 19.84Z" fill="white"/>
</g>
</g>
<path d="M292.778 16.2734C292.711 15.698 292.433 15.2514 291.946 14.9336C291.462 14.6133 290.868 14.4531 290.165 14.4531C289.649 14.4531 289.199 14.5365 288.813 14.7031C288.431 14.8698 288.131 15.099 287.915 15.3906C287.701 15.6823 287.595 16.0143 287.595 16.3867C287.595 16.6967 287.669 16.9623 287.817 17.1836C287.968 17.405 288.161 17.5886 288.395 17.7344C288.632 17.8802 288.879 18 289.134 18.0938C289.392 18.1876 289.629 18.2618 289.845 18.3164L291.028 18.6367C291.33 18.7149 291.668 18.8242 292.04 18.9648C292.415 19.1055 292.773 19.2969 293.114 19.5391C293.458 19.7787 293.742 20.0859 293.966 20.4609C294.19 20.8359 294.302 21.2956 294.302 21.8398C294.302 22.4701 294.138 23.0391 293.81 23.5469C293.481 24.0547 293.004 24.4584 292.376 24.7578C291.751 25.0547 290.991 25.2031 290.095 25.2031C289.261 25.2031 288.54 25.069 287.931 24.8008C287.324 24.5326 286.847 24.1576 286.501 23.6758C286.155 23.194 285.959 22.6354 285.915 22H287.368C287.407 22.4402 287.556 22.8034 287.813 23.0898C288.074 23.3737 288.403 23.586 288.802 23.7266C289.203 23.8646 289.634 23.9336 290.095 23.9336C290.634 23.9336 291.117 23.8451 291.544 23.668C291.974 23.4909 292.313 23.2448 292.563 22.9297C292.813 22.612 292.938 22.2409 292.938 21.8164C292.938 21.431 292.83 21.1172 292.614 20.875C292.398 20.6328 292.113 20.4362 291.759 20.2852C291.407 20.1342 291.027 20.0013 290.618 19.8867L289.188 19.4766C288.277 19.2162 287.556 18.8438 287.024 18.3594C286.496 17.8724 286.231 17.237 286.231 16.4531C286.231 15.8021 286.409 15.2331 286.763 14.7461C287.117 14.2591 287.593 13.8802 288.192 13.6094C288.794 13.3386 289.466 13.2031 290.208 13.2031C290.958 13.2031 291.625 13.3373 292.208 13.6055C292.791 13.8711 293.255 14.2357 293.599 14.6992C293.942 15.1602 294.123 15.6849 294.142 16.2734H292.778Z" fill="#46C190"/>
<path d="M296.436 28.2734V16.2734H297.732V17.6602H297.893C297.989 17.5091 298.126 17.3151 298.303 17.0781C298.48 16.8411 298.734 16.6289 299.064 16.4414C299.395 16.2539 299.844 16.1602 300.412 16.1602C301.149 16.1602 301.798 16.3437 302.357 16.7109C302.917 17.0781 303.355 17.5989 303.67 18.2734C303.985 18.9479 304.143 19.7435 304.143 20.6602C304.143 21.5846 303.985 22.3854 303.67 23.0625C303.355 23.7369 302.919 24.2591 302.361 24.6289C301.804 24.9987 301.162 25.1836 300.436 25.1836C299.876 25.1836 299.426 25.0898 299.088 24.9023C298.752 24.7148 298.493 24.5013 298.311 24.2617C298.128 24.0195 297.989 23.819 297.893 23.6602H297.775V28.2734H296.436ZM297.756 20.6367C297.756 21.2955 297.852 21.8763 298.045 22.3789C298.238 22.8789 298.519 23.2708 298.889 23.5547C299.261 23.8359 299.717 23.9766 300.256 23.9766C300.816 23.9766 301.283 23.8281 301.658 23.5312C302.036 23.2343 302.32 22.8333 302.51 22.3281C302.702 21.8203 302.799 21.2565 302.799 20.6367C302.799 20.0221 302.705 19.4687 302.518 18.9766C302.33 18.4818 302.048 18.0898 301.67 17.8008C301.295 17.5091 300.824 17.3633 300.256 17.3633C299.709 17.3633 299.249 17.5013 298.877 17.7773C298.507 18.0507 298.227 18.4336 298.037 18.9258C297.85 19.4154 297.756 19.9857 297.756 20.6367Z" fill="#46C190"/>
<path d="M309.732 25.1836C308.943 25.1836 308.252 24.9961 307.658 24.6211C307.067 24.2461 306.605 23.7213 306.271 23.0469C305.941 22.3724 305.775 21.5846 305.775 20.6836C305.775 19.7721 305.941 18.9778 306.271 18.3008C306.605 17.6237 307.067 17.0977 307.658 16.7227C308.252 16.3477 308.943 16.1602 309.732 16.1602C310.519 16.1602 311.209 16.3477 311.803 16.7227C312.396 17.0977 312.859 17.6237 313.189 18.3008C313.52 18.9778 313.685 19.7721 313.685 20.6836C313.685 21.5846 313.52 22.3724 313.189 23.0469C312.859 23.7213 312.396 24.2461 311.803 24.6211C311.209 24.9961 310.519 25.1836 309.732 25.1836ZM309.732 23.9766C310.331 23.9766 310.824 23.8242 311.209 23.5195C311.594 23.2122 311.88 22.8086 312.064 22.3086C312.252 21.8086 312.346 21.2669 312.346 20.6836C312.346 20.1002 312.252 19.5573 312.064 19.0547C311.88 18.5495 311.594 18.1419 311.209 17.832C310.824 17.5195 310.331 17.3633 309.732 17.3633C309.133 17.3633 308.64 17.5195 308.252 17.832C307.866 18.1419 307.581 18.5495 307.396 19.0547C307.212 19.5573 307.119 20.1002 307.119 20.6836C307.119 21.2669 307.212 21.8086 307.396 22.3086C307.581 22.8086 307.866 23.2122 308.252 23.5195C308.64 23.8242 309.133 23.9766 309.732 23.9766Z" fill="#46C190"/>
<path d="M315.73 25V16.2734H317.027V17.5898H317.117C317.276 17.1576 317.564 16.8073 317.98 16.5391C318.397 16.2709 318.867 16.1367 319.391 16.1367C319.49 16.1367 319.612 16.1393 319.758 16.1445C319.906 16.1471 320.018 16.1524 320.094 16.1602V17.5234C320.049 17.5104 319.947 17.4922 319.785 17.4688C319.624 17.4454 319.454 17.4336 319.277 17.4336C318.853 17.4336 318.474 17.5222 318.141 17.6992C317.81 17.8737 317.548 18.1159 317.355 18.4258C317.165 18.7331 317.07 19.0834 317.07 19.4766V25H315.73Z" fill="#46C190"/>
<path d="M326.027 16.2734V17.4102H321.504V16.2734H326.027ZM322.82 14.1836H324.164V22.5C324.164 22.8776 324.22 23.1602 324.332 23.3477C324.444 23.5352 324.587 23.6602 324.762 23.7227C324.939 23.7852 325.125 23.8164 325.32 23.8164C325.469 23.8164 325.59 23.8086 325.684 23.793C325.78 23.7747 325.857 23.7604 325.914 23.75L326.188 24.9531C326.096 24.987 325.969 25.0221 325.805 25.0586C325.643 25.0951 325.438 25.1133 325.188 25.1133C324.807 25.1133 324.436 25.0326 324.074 24.8711C323.712 24.707 323.413 24.4583 323.176 24.125C322.939 23.7917 322.82 23.3711 322.82 22.8633V14.1836Z" fill="#46C190"/>
<path d="M334.073 18.2266L332.866 18.5664C332.791 18.3658 332.68 18.1705 332.534 17.9805C332.388 17.7877 332.19 17.6289 331.94 17.5039C331.69 17.3789 331.37 17.3164 330.98 17.3164C330.446 17.3164 330.002 17.4388 329.647 17.6836C329.293 17.9284 329.116 18.2383 329.116 18.6133C329.116 18.9466 329.237 19.2096 329.48 19.4023C329.724 19.595 330.103 19.7565 330.616 19.8867L331.913 20.2031C332.694 20.3932 333.275 20.6823 333.655 21.0703C334.038 21.4583 334.23 21.957 334.23 22.5664C334.23 23.0664 334.086 23.5143 333.8 23.9102C333.516 24.3034 333.118 24.6146 332.605 24.8438C332.094 25.0703 331.5 25.1836 330.823 25.1836C329.933 25.1836 329.196 24.9909 328.612 24.6055C328.029 24.2174 327.659 23.6523 327.503 22.9102L328.776 22.5898C328.899 23.0612 329.129 23.414 329.468 23.6484C329.806 23.8828 330.25 24 330.8 24C331.425 24 331.922 23.8672 332.292 23.6016C332.662 23.3333 332.847 23.0117 332.847 22.6367C332.847 22.3346 332.74 22.0807 332.526 21.875C332.315 21.6666 331.99 21.5117 331.55 21.4102L330.097 21.0664C329.297 20.8789 328.71 20.5859 328.335 20.1875C327.963 19.7864 327.776 19.2851 327.776 18.6836C327.776 18.1888 327.916 17.7526 328.194 17.375C328.473 16.9974 328.853 16.7005 329.335 16.4844C329.819 16.2682 330.368 16.1602 330.98 16.1602C331.844 16.1602 332.524 16.3503 333.019 16.7305C333.513 17.1081 333.865 17.6068 334.073 18.2266Z" fill="#46C190"/>
<mask id="mask2_1_803" style="mask-type:luminance" maskUnits="userSpaceOnUse" x="261" y="11" width="16" height="16">
<path d="M261 11H277V27H261V11Z" fill="white"/>
</mask>
<g mask="url(#mask2_1_803)">
<mask id="mask3_1_803" style="mask-type:luminance" maskUnits="userSpaceOnUse" x="261" y="11" width="16" height="16">
<path d="M261 11H277V27H261V11Z" fill="white"/>
</mask>
<g mask="url(#mask3_1_803)">
<path d="M276.75 19C276.75 23.2802 273.28 26.75 269 26.75C264.72 26.75 261.25 23.2802 261.25 19C261.25 14.7198 264.72 11.25 269 11.25C273.28 11.25 276.75 14.7198 276.75 19ZM275.25 19L275.25 18.9912L274.435 19.7018L272.477 17.8737L272.991 15.2376L274.063 15.3336C273.285 14.2644 272.188 13.4558 270.916 13.048L271.342 14.0461L269 15.3438L266.658 14.0461L267.084 13.048C265.815 13.4551 264.716 14.2627 263.937 15.3337L265.017 15.2376L265.523 17.8737L263.565 19.7018L262.75 18.9912L262.75 19C262.75 20.3442 263.172 21.6235 263.952 22.6872L264.193 21.6279L266.854 21.9544L267.988 24.3865L267.054 24.9423C268.31 25.3523 269.688 25.3532 270.946 24.9423L270.012 24.3865L271.146 21.9544L273.807 21.6279L274.048 22.6872C274.828 21.6235 275.25 20.3442 275.25 19ZM267.497 21.1741L266.563 18.3206L269 16.5541L271.437 18.3206L270.512 21.1741H267.497Z" fill="#46C190"/>
</g>
</g>
</svg>
