<svg width="267" height="40" viewBox="0 0 267 40" fill="none" xmlns="http://www.w3.org/2000/svg">
<path d="M20 0C8.9543 0 0 8.9543 0 20V20.03C0 31.0757 8.9543 40 20 40H108.078C119.124 40 128.078 31.0757 128.078 20.03V20C128.078 8.9543 119.124 0 108.078 0H20Z" fill="#46C190"/>
<path d="M57.3682 18C57.2432 17.6172 57.0791 17.2735 56.876 16.9688C56.6729 16.6641 56.432 16.4037 56.1533 16.1875C55.8773 15.9714 55.5622 15.8073 55.208 15.6953C54.8565 15.5807 54.4711 15.5234 54.0518 15.5234C53.3617 15.5234 52.734 15.7018 52.1689 16.0586C51.6038 16.4128 51.1546 16.9375 50.8213 17.6328C50.488 18.3256 50.3213 19.1758 50.3213 20.1836C50.3213 21.1888 50.4893 22.0391 50.8252 22.7344C51.1637 23.4271 51.6208 23.9518 52.1963 24.3086C52.7744 24.6628 53.4229 24.8398 54.1416 24.8398C54.8083 24.8398 55.3955 24.6979 55.9033 24.4141C56.4137 24.1277 56.8121 23.7227 57.0986 23.1992C57.3851 22.6732 57.5283 22.0534 57.5283 21.3398L57.958 21.4336H54.458V20.1836H58.8916V21.4336C58.8916 22.392 58.6872 23.2253 58.2783 23.9336C57.872 24.642 57.3121 25.1901 56.5986 25.5781C55.8851 25.9662 55.0661 26.1602 54.1416 26.1602C53.1104 26.1602 52.2054 25.918 51.4268 25.4336C50.6481 24.9466 50.0413 24.2565 49.6064 23.3633C49.1742 22.4701 48.958 21.4102 48.958 20.1836C48.958 19.2618 49.0817 18.4323 49.3291 17.6953C49.5791 16.9583 49.9307 16.3307 50.3838 15.8125C50.8395 15.2943 51.3773 14.8972 51.9971 14.6211C52.6195 14.3425 53.3044 14.2031 54.0518 14.2031C54.6637 14.2031 55.2353 14.2956 55.7666 14.4805C56.3005 14.6628 56.7757 14.9219 57.1924 15.2578C57.6117 15.5938 57.9619 15.9935 58.2432 16.457C58.5244 16.9206 58.7171 17.4349 58.8213 18H57.3682Z" fill="black"/>
<path d="M63.6885 26.2031C63.1338 26.2031 62.6312 26.0989 62.1807 25.8906C61.7302 25.6796 61.3721 25.375 61.1065 24.9766C60.8408 24.5755 60.708 24.0911 60.708 23.5234C60.708 23.0234 60.807 22.6171 61.0049 22.3047C61.2028 21.9921 61.4659 21.7473 61.794 21.5703C62.1247 21.3906 62.4893 21.2565 62.8877 21.168C63.2888 21.0794 63.6911 21.0078 64.0947 20.9531C64.626 20.8854 65.057 20.8346 65.3877 20.8008C65.721 20.7643 65.9632 20.7031 66.1143 20.6172C66.2679 20.5286 66.3447 20.3763 66.3447 20.1602V20.1133C66.3447 19.5533 66.1924 19.1184 65.8877 18.8086C65.583 18.496 65.1221 18.3398 64.5049 18.3398C63.8643 18.3398 63.3617 18.4804 62.9971 18.7617C62.6351 19.0429 62.3799 19.3424 62.2315 19.6602L60.958 19.2031C61.1872 18.6745 61.4919 18.2617 61.8721 17.9648C62.2523 17.6653 62.669 17.457 63.1221 17.3398C63.5752 17.22 64.0205 17.1602 64.458 17.1602C64.7393 17.1602 65.0622 17.194 65.4268 17.2617C65.794 17.3268 66.1482 17.4622 66.4893 17.668C66.833 17.8711 67.1182 18.1797 67.3447 18.5938C67.5739 19.0052 67.6885 19.5572 67.6885 20.25V26H66.3447V24.8164H66.2783C66.1872 25.0065 66.0348 25.2096 65.8213 25.4258C65.6104 25.6419 65.3291 25.8255 64.9776 25.9766C64.626 26.1276 64.1963 26.2031 63.6885 26.2031ZM63.8916 25C64.4229 25 64.8708 24.8958 65.2354 24.6875C65.5999 24.4791 65.876 24.2109 66.0635 23.8828C66.251 23.552 66.3447 23.2044 66.3447 22.8398V21.6133C66.29 21.6809 66.1663 21.7421 65.9736 21.7969C65.7835 21.8515 65.5635 21.8997 65.3135 21.9414C65.0661 21.9804 64.8252 22.0143 64.5908 22.043C64.3591 22.0716 64.1716 22.095 64.0283 22.1133C63.6794 22.1601 63.3539 22.2343 63.0518 22.3359C62.7523 22.4349 62.5101 22.5833 62.3252 22.7812C62.1429 22.9791 62.0518 23.2486 62.0518 23.5898C62.0518 24.056 62.225 24.4075 62.5713 24.6445C62.9176 24.8815 63.3577 25 63.8916 25Z" fill="black"/>
<path d="M70.1406 26V17.2734H71.4375V18.6367H71.5508C71.7331 18.1705 72.0261 17.8086 72.4297 17.5508C72.8359 17.2904 73.3229 17.1602 73.8906 17.1602C74.4662 17.1602 74.9466 17.2904 75.332 17.5508C75.7174 17.8086 76.0169 18.1705 76.2305 18.6367H76.3242C76.5482 18.1861 76.8828 17.8281 77.3281 17.5625C77.7761 17.2943 78.3125 17.1602 78.9375 17.1602C79.7162 17.1602 80.3542 17.4036 80.8515 17.8906C81.3489 18.3776 81.5976 19.1341 81.5976 20.1602V26H80.2539V20.1602C80.2539 19.5143 80.0781 19.0533 79.7265 18.7773C79.375 18.5013 78.9597 18.3633 78.4805 18.3633C77.8685 18.3633 77.3933 18.5482 77.0547 18.918C76.7188 19.2878 76.5508 19.7539 76.5508 20.3164V26H75.1875V20.0234C75.1875 19.526 75.0261 19.1249 74.7031 18.8203C74.3828 18.5156 73.9687 18.3633 73.4609 18.3633C73.112 18.3633 72.7865 18.457 72.4844 18.6445C72.1849 18.8294 71.9427 19.0859 71.7578 19.4141C71.573 19.7395 71.4805 20.1171 71.4805 20.5469V26H70.1406Z" fill="black"/>
<path d="M87.7099 26.1836C86.8688 26.1836 86.1435 25.9974 85.5341 25.625C84.9274 25.25 84.46 24.7265 84.1318 24.0547C83.8037 23.3828 83.6396 22.5989 83.6396 21.7031C83.6396 20.8099 83.8037 20.0221 84.1318 19.3398C84.46 18.6549 84.9183 18.1211 85.5068 17.7383C86.0954 17.3529 86.7842 17.1602 87.5732 17.1602C88.029 17.1602 88.4782 17.2357 88.9208 17.3867C89.3636 17.5377 89.7659 17.7825 90.1279 18.1211C90.4925 18.4596 90.7829 18.9075 90.9991 19.4648C91.2152 20.0221 91.3232 20.7083 91.3232 21.5234V22.0898H84.5966V20.9336H89.9599C89.9599 20.4388 89.8623 19.9987 89.667 19.6133C89.4717 19.2279 89.1943 18.9232 88.8349 18.6992C88.4781 18.4752 88.0576 18.3633 87.5732 18.3633C87.0394 18.3633 86.5784 18.4948 86.1904 18.7578C85.8024 19.0208 85.5042 19.3632 85.2958 19.7852C85.0875 20.2044 84.9833 20.6549 84.9833 21.1367V21.9102C84.9833 22.569 85.0979 23.1262 85.3271 23.582C85.5563 24.0377 85.8753 24.3841 86.2841 24.6211C86.693 24.8581 87.1683 24.9766 87.7099 24.9766C88.0615 24.9766 88.3805 24.9271 88.667 24.8281C88.9534 24.7265 89.2008 24.5742 89.4091 24.3711C89.6175 24.1679 89.7776 23.9153 89.8896 23.6133L91.1866 23.9766C91.0511 24.4166 90.8219 24.802 90.4991 25.1328C90.1761 25.4635 89.7777 25.7213 89.3037 25.9062C88.8323 26.0911 88.3011 26.1836 87.7099 26.1836Z" fill="black"/>
<mask id="mask0_1_959" style="mask-type:luminance" maskUnits="userSpaceOnUse" x="23" y="13" width="17" height="14">
<path d="M23.9609 13.6H39.9609V26.4H23.9609V13.6Z" fill="white"/>
</mask>
<g mask="url(#mask0_1_959)">
<mask id="mask1_1_959" style="mask-type:luminance" maskUnits="userSpaceOnUse" x="23" y="13" width="17" height="14">
<path d="M23.9609 13.6H39.9609V26.4H23.9609V13.6Z" fill="white"/>
</mask>
<g mask="url(#mask1_1_959)">
<path d="M35.9628 16.8H27.961C26.5313 16.7999 25.4207 17.2761 24.6292 18.2286C23.8378 19.1811 23.7188 20.1847 24.2725 21.2392C24.8261 22.2937 25.8051 22.9284 27.2093 23.1431C28.6136 23.3579 29.8162 23.0569 30.817 22.24H33.105C34.1057 23.0568 35.3081 23.3578 36.7122 23.1432C38.1163 22.9286 39.0953 22.2941 39.6492 21.2398C40.203 20.1855 40.0845 19.1821 39.2935 18.2295C38.5025 17.2769 37.3923 16.8004 35.9628 16.8ZM30.161 20.24C30.161 20.3063 30.1317 20.3629 30.0731 20.4098C30.0145 20.4566 29.9438 20.48 29.861 20.48H28.561V21.52C28.561 21.5863 28.5317 21.6429 28.4731 21.6898C28.4145 21.7366 28.3438 21.76 28.261 21.76H27.661C27.5781 21.76 27.5074 21.7366 27.4488 21.6898C27.3903 21.6429 27.361 21.5863 27.361 21.52V20.48H26.061C25.9781 20.48 25.9074 20.4566 25.8488 20.4098C25.7903 20.3629 25.761 20.3063 25.761 20.24V19.76C25.761 19.6938 25.7903 19.6372 25.8488 19.5903C25.9074 19.5435 25.9781 19.52 26.061 19.52H27.361V18.48C27.361 18.4138 27.3903 18.3572 27.4488 18.3103C27.5074 18.2635 27.5781 18.24 27.661 18.24H28.261C28.3438 18.24 28.4145 18.2635 28.4731 18.3103C28.5317 18.3572 28.561 18.4138 28.561 18.48V19.52H29.861C29.9438 19.52 30.0145 19.5435 30.0731 19.5903C30.1317 19.6372 30.161 19.6938 30.161 19.76V20.24ZM35.561 21.76C35.2849 21.76 35.0492 21.6819 34.8539 21.5257C34.6586 21.3695 34.561 21.181 34.561 20.96C34.561 20.7391 34.6586 20.5506 34.8539 20.3944C35.0492 20.2381 35.2849 20.16 35.561 20.16C35.8371 20.16 36.0729 20.2381 36.2681 20.3944C36.4634 20.5506 36.561 20.7391 36.561 20.96C36.561 21.181 36.4634 21.3695 36.2681 21.5257C36.0729 21.6819 35.8371 21.76 35.561 21.76ZM37.161 19.84C36.8849 19.84 36.6492 19.7619 36.4539 19.6057C36.2586 19.4495 36.161 19.261 36.161 19.04C36.161 18.8191 36.2586 18.6306 36.4539 18.4744C36.6492 18.3181 36.8849 18.24 37.161 18.24C37.4371 18.24 37.6728 18.3181 37.8681 18.4744C38.0634 18.6306 38.161 18.8191 38.161 19.04C38.161 19.261 38.0634 19.4495 37.8681 19.6057C37.6728 19.7619 37.4371 19.84 37.161 19.84Z" fill="black"/>
</g>
</g>
<path d="M164.078 0C153.032 0 144.078 8.9543 144.078 20V20.03C144.078 31.0757 153.032 40 164.078 40H246.109C257.155 40 266.109 31.0757 266.109 20.03V20C266.109 8.9543 257.155 0 246.109 0H164.078Z" fill="white" fill-opacity="0.063"/>
<path d="M199.856 17.2734C199.789 16.698 199.511 16.2514 199.024 15.9336C198.54 15.6133 197.946 15.4531 197.243 15.4531C196.728 15.4531 196.277 15.5365 195.892 15.7031C195.509 15.8698 195.209 16.099 194.993 16.3906C194.78 16.6823 194.673 17.0143 194.673 17.3867C194.673 17.6967 194.747 17.9623 194.896 18.1836C195.047 18.405 195.239 18.5886 195.474 18.7344C195.711 18.8802 195.957 19 196.212 19.0938C196.47 19.1876 196.707 19.2618 196.923 19.3164L198.106 19.6367C198.409 19.7149 198.746 19.8242 199.118 19.9648C199.493 20.1055 199.851 20.2969 200.192 20.5391C200.536 20.7787 200.82 21.0859 201.044 21.4609C201.268 21.8359 201.38 22.2956 201.38 22.8398C201.38 23.4701 201.216 24.0391 200.888 24.5469C200.56 25.0547 200.082 25.4584 199.454 25.7578C198.829 26.0547 198.069 26.2031 197.173 26.2031C196.34 26.2031 195.618 26.069 195.009 25.8008C194.402 25.5326 193.925 25.1576 193.579 24.6758C193.233 24.194 193.037 23.6354 192.993 23H194.446C194.485 23.4402 194.634 23.8034 194.892 24.0898C195.152 24.3737 195.481 24.586 195.88 24.7266C196.281 24.8646 196.712 24.9336 197.173 24.9336C197.712 24.9336 198.195 24.8451 198.622 24.668C199.052 24.4909 199.392 24.2448 199.642 23.9297C199.892 23.612 200.017 23.2409 200.017 22.8164C200.017 22.431 199.908 22.1172 199.692 21.875C199.476 21.6328 199.191 21.4362 198.837 21.2852C198.485 21.1342 198.105 21.0013 197.696 20.8867L196.267 20.4766C195.355 20.2162 194.634 19.8438 194.103 19.3594C193.574 18.8724 193.31 18.237 193.31 17.4531C193.31 16.8021 193.487 16.2331 193.841 15.7461C194.195 15.2591 194.672 14.8802 195.271 14.6094C195.872 14.3386 196.544 14.2031 197.286 14.2031C198.036 14.2031 198.703 14.3373 199.286 14.6055C199.869 14.8711 200.333 15.2357 200.677 15.6992C201.02 16.1602 201.201 16.6849 201.22 17.2734H199.856Z" fill="white"/>
<path d="M203.514 29.2734V17.2734H204.811V18.6602H204.971C205.067 18.5091 205.204 18.3151 205.381 18.0781C205.558 17.8411 205.812 17.6289 206.143 17.4414C206.473 17.2539 206.923 17.1602 207.49 17.1602C208.227 17.1602 208.876 17.3437 209.436 17.7109C209.995 18.0781 210.433 18.5989 210.748 19.2734C211.063 19.9479 211.221 20.7435 211.221 21.6602C211.221 22.5846 211.063 23.3854 210.748 24.0625C210.433 24.7369 209.997 25.2591 209.439 25.6289C208.882 25.9987 208.24 26.1836 207.514 26.1836C206.954 26.1836 206.505 26.0898 206.166 25.9023C205.83 25.7148 205.571 25.5013 205.389 25.2617C205.206 25.0195 205.067 24.819 204.971 24.6602H204.854V29.2734H203.514ZM204.834 21.6367C204.834 22.2955 204.93 22.8763 205.123 23.3789C205.316 23.8789 205.597 24.2708 205.967 24.5547C206.339 24.8359 206.795 24.9766 207.334 24.9766C207.894 24.9766 208.361 24.8281 208.736 24.5312C209.114 24.2343 209.398 23.8333 209.588 23.3281C209.781 22.8203 209.877 22.2565 209.877 21.6367C209.877 21.0221 209.783 20.4687 209.596 19.9766C209.408 19.4818 209.126 19.0898 208.748 18.8008C208.373 18.5091 207.902 18.3633 207.334 18.3633C206.787 18.3633 206.327 18.5013 205.955 18.7773C205.585 19.0507 205.305 19.4336 205.115 19.9258C204.928 20.4154 204.834 20.9857 204.834 21.6367Z" fill="white"/>
<path d="M216.811 26.1836C216.021 26.1836 215.33 25.9961 214.736 25.6211C214.145 25.2461 213.683 24.7213 213.35 24.0469C213.019 23.3724 212.854 22.5846 212.854 21.6836C212.854 20.7721 213.019 19.9778 213.35 19.3008C213.683 18.6237 214.145 18.0977 214.736 17.7227C215.33 17.3477 216.021 17.1602 216.811 17.1602C217.597 17.1602 218.287 17.3477 218.881 17.7227C219.475 18.0977 219.937 18.6237 220.268 19.3008C220.598 19.9778 220.764 20.7721 220.764 21.6836C220.764 22.5846 220.598 23.3724 220.268 24.0469C219.937 24.7213 219.475 25.2461 218.881 25.6211C218.287 25.9961 217.597 26.1836 216.811 26.1836ZM216.811 24.9766C217.409 24.9766 217.902 24.8242 218.287 24.5195C218.673 24.2122 218.958 23.8086 219.143 23.3086C219.33 22.8086 219.424 22.2669 219.424 21.6836C219.424 21.1002 219.33 20.5573 219.143 20.0547C218.958 19.5495 218.673 19.1419 218.287 18.832C217.902 18.5195 217.409 18.3633 216.811 18.3633C216.212 18.3633 215.718 18.5195 215.33 18.832C214.945 19.1419 214.659 19.5495 214.475 20.0547C214.29 20.5573 214.197 21.1002 214.197 21.6836C214.197 22.2669 214.29 22.8086 214.475 23.3086C214.659 23.8086 214.945 24.2122 215.33 24.5195C215.718 24.8242 216.212 24.9766 216.811 24.9766Z" fill="white"/>
<path d="M222.809 26V17.2734H224.105V18.5898H224.195C224.354 18.1576 224.642 17.8073 225.059 17.5391C225.475 17.2709 225.945 17.1367 226.469 17.1367C226.568 17.1367 226.69 17.1393 226.836 17.1445C226.984 17.1471 227.096 17.1524 227.172 17.1602V18.5234C227.128 18.5104 227.025 18.4922 226.863 18.4688C226.702 18.4454 226.533 18.4336 226.355 18.4336C225.931 18.4336 225.552 18.5222 225.219 18.6992C224.888 18.8737 224.626 19.1159 224.434 19.4258C224.243 19.7331 224.148 20.0834 224.148 20.4766V26H222.809Z" fill="white"/>
<path d="M233.106 17.2734V18.4102H228.582V17.2734H233.106ZM229.898 15.1836H231.242V23.5C231.242 23.8776 231.298 24.1602 231.41 24.3477C231.522 24.5352 231.665 24.6602 231.84 24.7227C232.017 24.7852 232.203 24.8164 232.398 24.8164C232.547 24.8164 232.668 24.8086 232.762 24.793C232.858 24.7747 232.935 24.7604 232.992 24.75L233.266 25.9531C233.174 25.987 233.047 26.0221 232.883 26.0586C232.721 26.0951 232.516 26.1133 232.266 26.1133C231.885 26.1133 231.514 26.0326 231.152 25.8711C230.79 25.707 230.491 25.4583 230.254 25.125C230.017 24.7917 229.898 24.3711 229.898 23.8633V15.1836Z" fill="white"/>
<path d="M241.151 19.2266L239.944 19.5664C239.869 19.3658 239.758 19.1705 239.612 18.9805C239.466 18.7877 239.269 18.6289 239.019 18.5039C238.769 18.3789 238.448 18.3164 238.058 18.3164C237.524 18.3164 237.08 18.4388 236.726 18.6836C236.371 18.9284 236.194 19.2383 236.194 19.6133C236.194 19.9466 236.315 20.2096 236.558 20.4023C236.802 20.595 237.181 20.7565 237.694 20.8867L238.991 21.2031C239.772 21.3932 240.353 21.6823 240.733 22.0703C241.116 22.4583 241.308 22.957 241.308 23.5664C241.308 24.0664 241.164 24.5143 240.878 24.9102C240.594 25.3034 240.196 25.6146 239.683 25.8438C239.172 26.0703 238.578 26.1836 237.901 26.1836C237.011 26.1836 236.274 25.9909 235.69 25.6055C235.107 25.2174 234.737 24.6523 234.581 23.9102L235.855 23.5898C235.977 24.0612 236.207 24.414 236.546 24.6484C236.884 24.8828 237.328 25 237.878 25C238.503 25 239 24.8672 239.37 24.6016C239.74 24.3333 239.925 24.0117 239.925 23.6367C239.925 23.3346 239.818 23.0807 239.605 22.875C239.394 22.6666 239.068 22.5117 238.628 22.4102L237.175 22.0664C236.375 21.8789 235.788 21.5859 235.413 21.1875C235.041 20.7864 234.855 20.2851 234.855 19.6836C234.855 19.1888 234.994 18.7526 235.272 18.375C235.551 17.9974 235.931 17.7005 236.413 17.4844C236.897 17.2682 237.446 17.1602 238.058 17.1602C238.922 17.1602 239.602 17.3503 240.097 17.7305C240.591 18.1081 240.943 18.6068 241.151 19.2266Z" fill="white"/>
<mask id="mask2_1_959" style="mask-type:luminance" maskUnits="userSpaceOnUse" x="168" y="12" width="17" height="16">
<path d="M168.078 12H184.078V28H168.078V12Z" fill="white"/>
</mask>
<g mask="url(#mask2_1_959)">
<mask id="mask3_1_959" style="mask-type:luminance" maskUnits="userSpaceOnUse" x="168" y="12" width="17" height="16">
<path d="M168.078 12H184.078V28H168.078V12Z" fill="white"/>
</mask>
<g mask="url(#mask3_1_959)">
<path d="M183.828 20C183.828 24.2802 180.358 27.75 176.078 27.75C171.798 27.75 168.328 24.2802 168.328 20C168.328 15.7198 171.798 12.25 176.078 12.25C180.358 12.25 183.828 15.7198 183.828 20ZM182.328 20L182.328 19.9912L181.514 20.7018L179.555 18.8737L180.069 16.2376L181.141 16.3336C180.363 15.2644 179.266 14.4558 177.994 14.048L178.42 15.0461L176.078 16.3438L173.736 15.0461L174.162 14.048C172.893 14.4551 171.794 15.2627 171.015 16.3337L172.095 16.2376L172.601 18.8737L170.643 20.7018L169.828 19.9912L169.828 20C169.828 21.3442 170.25 22.6235 171.03 23.6872L171.271 22.6279L173.932 22.9544L175.066 25.3865L174.132 25.9423C175.388 26.3523 176.766 26.3532 178.025 25.9423L177.09 25.3865L178.225 22.9544L180.885 22.6279L181.126 23.6872C181.906 22.6235 182.328 21.3442 182.328 20ZM174.575 22.1741L173.641 19.3206L176.078 17.5541L178.516 19.3206L177.59 22.1741H174.575Z" fill="white"/>
</g>
</g>
</svg>
