<svg width="1219" height="410" viewBox="0 0 1219 410" fill="none" xmlns="http://www.w3.org/2000/svg">
<path d="M1217.84 26.1942L1215.64 381.526C1215.56 395.02 1204.6 405.914 1191.1 405.914H808.27C802 405.914 795.967 403.514 791.411 399.206L764.573 373.832C759.831 369.349 753.552 366.851 747.026 366.851H607.745H471.481C463.901 366.851 456.712 370.218 451.859 376.041L431.819 400.089C427.156 405.684 420.25 408.919 412.967 408.919H29.5095C16.0675 408.919 5.12716 398.105 4.97096 384.664L0.795163 25.3261C0.63638 11.6624 11.669 0.50082 25.3337 0.50082H412.074C419.154 0.50082 425.889 3.55887 430.549 8.8894L450.39 31.585C455.24 37.1331 462.25 40.316 469.62 40.316H610.499H748.26C754.949 40.316 761.371 37.6918 766.147 33.0072L791.103 8.52459C795.691 4.02378 801.861 1.50246 808.288 1.50246H1193.3C1206.91 1.50246 1217.92 12.5821 1217.84 26.1942Z" fill="url(#paint0_linear_1_777)" stroke="#46C190" stroke-width="1.00164"/>
<defs>
<linearGradient id="paint0_linear_1_777" x1="8.26353" y1="204.835" x2="1218.49" y2="204.835" gradientUnits="userSpaceOnUse">
<stop/>
<stop offset="1" stop-color="#46C190"/>
</linearGradient>
</defs>
</svg>
